<?xml version="1.0" encoding="UTF-8" standalone="no"?>
<!-- Created with Inkscape (http://www.inkscape.org/) -->

<svg
   xmlns:dc="http://purl.org/dc/elements/1.1/"
   xmlns:cc="http://creativecommons.org/ns#"
   xmlns:rdf="http://www.w3.org/1999/02/22-rdf-syntax-ns#"
   xmlns:svg="http://www.w3.org/2000/svg"
   xmlns="http://www.w3.org/2000/svg"
   xmlns:xlink="http://www.w3.org/1999/xlink"
   xmlns:sodipodi="http://sodipodi.sourceforge.net/DTD/sodipodi-0.dtd"
   xmlns:inkscape="http://www.inkscape.org/namespaces/inkscape"
   id="svg2"
   version="1.1"
   inkscape:version="0.91 r13725"
   width="256"
   height="256"
   viewBox="0 0 256 256"
   sodipodi:docname="new-google-G+-logo.svg">
  <metadata
     id="metadata8">
    <rdf:RDF>
      <cc:Work
         rdf:about="">
        <dc:format>image/svg+xml</dc:format>
        <dc:type
           rdf:resource="http://purl.org/dc/dcmitype/StillImage" />
        <dc:title></dc:title>
      </cc:Work>
    </rdf:RDF>
  </metadata>
  <defs
     id="defs6">
    <linearGradient
       inkscape:collect="always"
       id="linearGradient9660">
      <stop
         style="stop-color:#000000;stop-opacity:1;"
         offset="0"
         id="stop9662" />
      <stop
         style="stop-color:#000000;stop-opacity:0;"
         offset="1"
         id="stop9664" />
    </linearGradient>
    <linearGradient
       inkscape:collect="always"
       xlink:href="#linearGradient9660"
       id="linearGradient9666"
       x1="123.42711"
       y1="1513.2745"
       x2="143.40109"
       y2="1533.1448"
       gradientUnits="userSpaceOnUse"
       gradientTransform="matrix(7.4782504,0,0,7.4782504,-739.27638,-11895.816)" />
  </defs>
  <sodipodi:namedview
     pagecolor="#ffffff"
     bordercolor="#666666"
     borderopacity="1"
     objecttolerance="10"
     gridtolerance="10"
     guidetolerance="10"
     inkscape:pageopacity="0"
     inkscape:pageshadow="2"
     inkscape:window-width="1920"
     inkscape:window-height="1018"
     id="namedview4"
     showgrid="false"
     inkscape:zoom="2.1707603"
     inkscape:cx="185.99489"
     inkscape:cy="93.657599"
     inkscape:window-x="-8"
     inkscape:window-y="-8"
     inkscape:window-maximized="1"
     inkscape:current-layer="svg2" />
  <g
     id="g9668"
     transform="matrix(0.71013214,0,0,0.71013214,-73.79624,513.43157)">
    <circle
       r="168.04185"
       cy="-539.90363"
       cx="282.15854"
       id="path10243"
       style="opacity:1;fill:#f44336;fill-opacity:1;fill-rule:evenodd;stroke:none;stroke-width:6;stroke-linecap:round;stroke-linejoin:round;stroke-miterlimit:4;stroke-dasharray:none;stroke-dashoffset:0;stroke-opacity:1" />
    <path
       inkscape:connector-curvature="0"
       id="circle9645"
       d="m 227.25825,-608.27329 -33.37461,15.93541 -24.75705,37.6829 4.5132,42.62079 4.68849,25.26826 114.52536,114.52492 a 168.04186,168.04186 0 0 0 154.75013,-139.36991 l -71.74446,-71.74484 -24.36272,0 0,34.07615 -17.22047,0 -8.39845,0 -47.48397,-47.46969 -51.13545,-11.52399 z"
       style="opacity:0.303;fill:url(#linearGradient9666);fill-opacity:1;fill-rule:evenodd;stroke:none;stroke-width:6;stroke-linecap:round;stroke-linejoin:round;stroke-miterlimit:4;stroke-dasharray:none;stroke-dashoffset:0;stroke-opacity:1" />
    <g
       transform="matrix(7.4782504,0,0,7.4782504,-742.21407,-11894.076)"
       id="g9640">
      <path
         style="opacity:1;fill:#ffffff;fill-opacity:1;fill-rule:evenodd;stroke:none;stroke-width:6;stroke-linecap:round;stroke-linejoin:round;stroke-miterlimit:4;stroke-dasharray:none;stroke-dashoffset:0;stroke-opacity:1"
         d="m 146.20379,1512.46 0,4.1481 -4.14806,0 0,3.3187 4.14806,0 0,4.148 3.31868,0 0,-4.148 4.14807,0 0,-3.3187 -4.14807,0 0,-4.1481 -3.31868,0 z"
         id="rect10245"
         inkscape:connector-curvature="0" />
      <g
         id="g9670"
         transform="matrix(0.26905411,0,0,0.26905411,49.50709,1434.0026)"
         inkscape:export-filename="D:\Документы\Документы\Мой сайт\graydon.ru\редизайн-гугла-2015\g9670.png"
         inkscape:export-xdpi="96"
         inkscape:export-ydpi="96"
         style="fill:#ffffff">
        <path
           style="opacity:1;fill:#ffffff;fill-opacity:1;fill-rule:evenodd;stroke:none;stroke-width:6;stroke-linecap:round;stroke-linejoin:round;stroke-miterlimit:4;stroke-dasharray:none;stroke-dashoffset:0;stroke-opacity:1"
           d="m 299.52232,275.81091 c -14.13272,0 -26.37319,8.28015 -32.41736,20.37085 -0.0244,0.0488 -0.0534,0.0948 -0.0776,0.14378 l 0.008,0.006 c -2.52181,5.09392 -3.95495,10.85336 -3.95495,16.96082 0,5.99594 1.3789,11.65771 3.81492,16.68275 l 0.008,-0.006 c 5.96855,12.31829 18.33376,20.78524 32.62929,20.78524 9.54293,0 18.22505,-3.77607 24.72129,-9.94786 l -0.008,-0.006 c 7.20068,-6.84379 11.71536,-16.63218 11.71536,-27.50869 -0.006,-2.35707 -0.23019,-4.7026 -0.6661,-7.01674 l -35.18961,0 0,14.0638 20.36139,0 c -1.46766,4.62053 -4.28488,8.48293 -7.90234,11.18171 -3.56033,2.65422 -7.89128,4.18551 -12.48553,4.18958 -9.63815,0 -17.79459,-6.60962 -20.52791,-15.71766 l -0.008,0.006 c -0.6364,-2.11814 -0.98212,-4.36941 -0.98212,-6.70641 0,-2.59589 0.43066,-5.08569 1.2092,-7.40468 2.93,-8.75014 10.90574,-15.03258 20.29893,-15.03258 5.20305,0.006 10.22843,1.97746 14.14321,5.55017 l 10.33396,-10.33395 c -6.76019,-6.58085 -15.71404,-10.25209 -25.02405,-10.26013 z"
           id="path9633"
           inkscape:connector-curvature="0" />
      </g>
    </g>
  </g>
</svg>
