<?xml version="1.0" encoding="utf-8"?>
<!-- Generator: Adobe Illustrator 19.0.0, SVG Export Plug-In . SVG Version: 6.00 Build 0)  -->
<svg version="1.1" id="Layer_1" xmlns="http://www.w3.org/2000/svg" xmlns:xlink="http://www.w3.org/1999/xlink" x="0px" y="0px"
	 viewBox="0 0 80 80" style="enable-background:new 0 0 80 80;" xml:space="preserve">
<style type="text/css">
	.st0{fill:#FEDC00;}
	.st1{fill:#109DFF;}
</style>
<circle class="st0" cx="40" cy="40" r="40"/>
<g>
	<g>
		<path class="st1" d="M40,34.5c-1.4,0-2.5-1.1-2.5-2.5v-9.3c0-1.4,1.1-2.5,2.5-2.5c1.4,0,2.5,1.1,2.5,2.5V32
			C42.5,33.4,41.4,34.5,40,34.5"/>
		<path class="st1" d="M34.1,38.8c-0.4,1.3-1.8,2.1-3.2,1.6l-8.8-2.9c-1.3-0.4-2-1.9-1.6-3.2c0.4-1.3,1.8-2.1,3.2-1.6l8.8,2.9
			C33.8,36,34.5,37.4,34.1,38.8"/>
		<path class="st1" d="M45.8,38.8c0.4,1.3,1.8,2.1,3.2,1.6l8.8-2.9c1.3-0.4,2-1.9,1.6-3.2c-0.4-1.3-1.8-2.1-3.2-1.6l-8.8,2.9
			C46.1,36,45.4,37.4,45.8,38.8"/>
		<path class="st1" d="M28,57.3c-1.1-0.8-1.4-2.4-0.6-3.5l5.4-7.5c0.8-1.1,2.4-1.4,3.5-0.6c1.1,0.8,1.4,2.4,0.6,3.5l-5.4,7.5
			C30.7,57.8,29.1,58.1,28,57.3"/>
		<path class="st1" d="M52,57.3c1.1-0.8,1.4-2.4,0.6-3.5l-5.4-7.5c-0.8-1.1-2.4-1.4-3.5-0.6c-1.1,0.8-1.4,2.4-0.6,3.5l5.4,7.5
			C49.3,57.8,50.8,58.1,52,57.3"/>
	</g>
</g>
</svg>
